<?xml version="1.0" ?><!-- Uploaded to: SVG Repo, www.svgrepo.com, Generator: SVG Repo Mixer Tools -->
<svg width="800px" height="800px" viewBox="0 0 30 30" id="Layer_1" version="1.1" xml:space="preserve" xmlns="http://www.w3.org/2000/svg" xmlns:xlink="http://www.w3.org/1999/xlink"><style type="text/css">
	.st0{fill:#FD6A7E;}
	.st1{fill:#17B978;}
	.st2{fill:#8797EE;}
	.st3{fill:#41A6F9;}
	.st4{fill:#37E0FF;}
	.st5{fill:#2FD9B9;}
	.st6{fill:#F498BD;}
	.st7{fill:#FFDF1D;}
	.st8{fill:#C6C9CC;}
</style><path class="st3" d="M23,6v18c0,0.6-0.4,1-1,1h-1c-0.6,0-1-0.4-1-1v-6H10v6c0,0.6-0.4,1-1,1H8c-0.6,0-1-0.4-1-1V6c0-0.6,0.4-1,1-1h1  c0.6,0,1,0.4,1,1v6h10V6c0-0.6,0.4-1,1-1h1C22.6,5,23,5.4,23,6z M3,9v4c-0.6,0-1,0.4-1,1v2c0,0.6,0.4,1,1,1v4c0,0.6,0.4,1,1,1h1V8H4  C3.4,8,3,8.4,3,9z M27,13V9c0-0.6-0.4-1-1-1h-1v14h1c0.6,0,1-0.4,1-1v-4c0.6,0,1-0.4,1-1v-2C28,13.4,27.6,13,27,13z"/></svg>