<?xml version="1.0" ?><!-- Uploaded to: SVG Repo, www.svgrepo.com, Generator: SVG Repo Mixer Tools -->
<svg width="800px" height="800px" viewBox="0 0 30 30" id="Layer_1" version="1.1" xml:space="preserve" xmlns="http://www.w3.org/2000/svg" xmlns:xlink="http://www.w3.org/1999/xlink"><style type="text/css">
	.st0{fill:#FD6A7E;}
	.st1{fill:#17B978;}
	.st2{fill:#8797EE;}
	.st3{fill:#41A6F9;}
	.st4{fill:#37E0FF;}
	.st5{fill:#2FD9B9;}
	.st6{fill:#F498BD;}
	.st7{fill:#FFDF1D;}
	.st8{fill:#C6C9CC;}
</style><path class="st0" d="M25,12h-6.5V5.5c0-0.6-0.4-1-1-1h-5c-0.6,0-1,0.4-1,1V12H5c-0.6,0-1,0.4-1,1v5c0,0.6,0.4,1,1,1h6.5v6.5  c0,0.6,0.4,1,1,1h5c0.6,0,1-0.4,1-1V19H25c0.6,0,1-0.4,1-1v-5C26,12.4,25.6,12,25,12z"/></svg>