<?xml version="1.0" ?><!-- Uploaded to: SVG Repo, www.svgrepo.com, Generator: SVG Repo Mixer Tools -->
<svg width="800px" height="800px" viewBox="0 0 30 30" id="Layer_1" version="1.1" xml:space="preserve" xmlns="http://www.w3.org/2000/svg" xmlns:xlink="http://www.w3.org/1999/xlink"><style type="text/css">
	.st0{fill:#FD6A7E;}
	.st1{fill:#17B978;}
	.st2{fill:#8797EE;}
	.st3{fill:#41A6F9;}
	.st4{fill:#37E0FF;}
	.st5{fill:#2FD9B9;}
	.st6{fill:#F498BD;}
	.st7{fill:#FFDF1D;}
	.st8{fill:#C6C9CC;}
</style><path class="st1" d="M13.2,26.5L13.2,26.5c-1.1,0.7-2.6,0.6-3.7-0.1c-2.1-1.4-5.1-4.4-5.2-10.7c-0.1-2.9,2.1-5.5,5-5.7  c1.2-0.1,2.4,0.3,3.3,0.9c1.4,0.9,3.3,0.9,4.7,0c0.9-0.6,2.1-1,3.3-0.9c2.9,0.2,5.1,2.8,5,5.7c-0.1,6.3-3.1,9.4-5.2,10.7  c-1.1,0.7-2.5,0.7-3.7,0.1l0,0C15.7,25.9,14.3,25.9,13.2,26.5z M15.3,4.5c-1.3,1.3-1.8,3-1.5,4.6c1.6,0.3,3.3-0.2,4.6-1.5  s1.8-3,1.5-4.6C18.4,2.7,16.6,3.2,15.3,4.5z"/></svg>