<?xml version="1.0" ?><!-- Uploaded to: SVG Repo, www.svgrepo.com, Generator: SVG Repo Mixer Tools -->
<svg width="800px" height="800px" viewBox="0 0 30 30" id="Layer_1" version="1.1" xml:space="preserve" xmlns="http://www.w3.org/2000/svg" xmlns:xlink="http://www.w3.org/1999/xlink"><style type="text/css">
	.st0{fill:#FD6A7E;}
	.st1{fill:#17B978;}
	.st2{fill:#8797EE;}
	.st3{fill:#41A6F9;}
	.st4{fill:#37E0FF;}
	.st5{fill:#2FD9B9;}
	.st6{fill:#F498BD;}
	.st7{fill:#FFDF1D;}
	.st8{fill:#C6C9CC;}
</style><path class="st6" d="M27,10c0,0.6-0.4,1-1,1c-1.3,0-2.4,0.9-2.7,2.1L23,14.2c0,0.1-0.1,0.2-0.1,0.3c-0.9,4.7-6,8.3-11.7,7.3  c-4-0.7-7.2-3.5-7.9-7.1C3.1,14.2,3,13.6,3,13l7,0.1c0.3,0,0.6-0.3,0.7-0.6c0-0.4-0.2-0.7-0.6-0.7l-6.9-0.7C3.8,6.8,7.5,3,13,3  l1.2,10h7l0.1-0.3C21.8,10.5,23.8,9,26,9C26.5,9,27,9.4,27,10z M18.5,23c-1.4,0-2.5,1.1-2.5,2.5s1.1,2.5,2.5,2.5s2.5-1.1,2.5-2.5  S19.9,23,18.5,23z M7.5,23C6.1,23,5,24.1,5,25.5S6.1,28,7.5,28s2.5-1.1,2.5-2.5S8.9,23,7.5,23z"/></svg>