<?xml version="1.0" ?><!-- Uploaded to: SVG Repo, www.svgrepo.com, Generator: SVG Repo Mixer Tools -->
<svg width="800px" height="800px" viewBox="0 0 30 30" id="Layer_1" version="1.1" xml:space="preserve" xmlns="http://www.w3.org/2000/svg" xmlns:xlink="http://www.w3.org/1999/xlink"><style type="text/css">
	.st0{fill:#FD6A7E;}
	.st1{fill:#17B978;}
	.st2{fill:#8797EE;}
	.st3{fill:#41A6F9;}
	.st4{fill:#37E0FF;}
	.st5{fill:#2FD9B9;}
	.st6{fill:#F498BD;}
	.st7{fill:#FFDF1D;}
	.st8{fill:#C6C9CC;}
</style><path class="st4" d="M24.9,24.1l-0.4-5c-0.4-4.5-2.8-7.5-6.5-10l1-6h-5l-0.8,1H11l0.6,3.2l4.4,0.6c0.4,0.1,0.6,0.4,0.6,0.7  c0,0.3-0.3,0.6-0.7,0.6l-4-0.1c-3.7,2.5-6.1,5.5-6.4,10l-0.4,5C4.5,24.3,4,24.8,4,25.5C4,26.3,4.7,27,5.5,27h19  c0.8,0,1.5-0.7,1.5-1.5C26,24.8,25.5,24.3,24.9,24.1z M11.4,17.6l2.2-0.3l1-2c0.2-0.3,0.6-0.3,0.8,0l1,2l2.2,0.3  c0.4,0.1,0.5,0.5,0.3,0.8L17.3,20l0.4,2.2c0.1,0.4-0.3,0.7-0.7,0.5l-2-1l-2,1c-0.3,0.2-0.7-0.1-0.7-0.5l0.4-2.2l-1.6-1.6  C10.9,18.1,11,17.7,11.4,17.6z"/></svg>