<?xml version="1.0" ?><!-- Uploaded to: SVG Repo, www.svgrepo.com, Generator: SVG Repo Mixer Tools -->
<svg width="800px" height="800px" viewBox="0 0 30 30" id="Layer_1" version="1.1" xml:space="preserve" xmlns="http://www.w3.org/2000/svg" xmlns:xlink="http://www.w3.org/1999/xlink"><style type="text/css">
	.st0{fill:#FD6A7E;}
	.st1{fill:#17B978;}
	.st2{fill:#8797EE;}
	.st3{fill:#41A6F9;}
	.st4{fill:#37E0FF;}
	.st5{fill:#2FD9B9;}
	.st6{fill:#F498BD;}
	.st7{fill:#FFDF1D;}
	.st8{fill:#C6C9CC;}
</style><path class="st4" d="M19.2,13L19,9h-2V8c0-2.8-2.2-5-5-5S7,5.2,7,8v1H5L4.1,22.9C4.1,24,5,25,6.1,25H11V13H19.2z M10,9V8  c0-1.1,0.9-2,2-2s2,0.9,2,2v1H10z M18,16.9V15h3v1.9c0,0.8-0.7,1.5-1.5,1.5S18,17.8,18,16.9z M26,15v11c0,0.6-0.4,1-1,1H14  c-0.6,0-1-0.4-1-1V15h3v1.9c0,1.9,1.6,3.5,3.5,3.5s3.5-1.6,3.5-3.5V15H26z"/></svg>