<?xml version="1.0" ?><!-- Uploaded to: SVG Repo, www.svgrepo.com, Generator: SVG Repo Mixer Tools -->
<svg width="800px" height="800px" viewBox="0 0 30 30" id="Layer_1" version="1.1" xml:space="preserve" xmlns="http://www.w3.org/2000/svg" xmlns:xlink="http://www.w3.org/1999/xlink"><style type="text/css">
	.st0{fill:#FD6A7E;}
	.st1{fill:#17B978;}
	.st2{fill:#8797EE;}
	.st3{fill:#41A6F9;}
	.st4{fill:#37E0FF;}
	.st5{fill:#2FD9B9;}
	.st6{fill:#F498BD;}
	.st7{fill:#FFDF1D;}
	.st8{fill:#C6C9CC;}
</style><path class="st0" d="M25.3,7.5L25.3,7.5c-2.9-2.9-7.4-2.9-10.2,0l0,0l0,0c-2.8-2.8-7.4-2.8-10.2,0c-2.7,2.7-2.9,6.9-0.4,9.8  c1.3,1.5,2.6,2.8,4,4.1c0.6-0.3,1.4-0.6,2.1-1l0,0c0,0,3-1.3,4.9-4.1c-2.4,1.7-4.7,2.4-5.7,2.6c-0.4-1.5-0.1-3.1,1-4.2  c1.5-1.5,5.8-1.9,7.3-4.3c0.2-0.3,0.6-0.3,0.8,0c0.7,1.6,1.9,5.4-0.7,9.3c-1.3,2-4.2,2.9-6.3,1.8c-0.7,0.5-1.4,1-1.9,1.3  c1.6,1.4,3.3,2.7,5.1,3.9c4.1-2.6,7.6-5.8,10.7-9.4C28.1,14.4,27.9,10.2,25.3,7.5z"/></svg>