<?xml version="1.0" ?><!-- Uploaded to: SVG Repo, www.svgrepo.com, Generator: SVG Repo Mixer Tools -->
<svg width="800px" height="800px" viewBox="0 0 30 30" id="Layer_1" version="1.1" xml:space="preserve" xmlns="http://www.w3.org/2000/svg" xmlns:xlink="http://www.w3.org/1999/xlink"><style type="text/css">
	.st0{fill:#FD6A7E;}
	.st1{fill:#17B978;}
	.st2{fill:#8797EE;}
	.st3{fill:#41A6F9;}
	.st4{fill:#37E0FF;}
	.st5{fill:#2FD9B9;}
	.st6{fill:#F498BD;}
	.st7{fill:#FFDF1D;}
	.st8{fill:#C6C9CC;}
</style><path class="st5" d="M23,6v2H7V6c0-0.6,0.4-1,1-1h1V4c0-0.6,0.4-1,1-1h10c0.6,0,1,0.4,1,1v1h1C22.6,5,23,5.4,23,6z M22,10l-0.9,16.1  c0,0.5-0.5,0.9-1,0.9H9.9c-0.5,0-1-0.4-1-0.9L8,10H22z M18.9,18c0-2.1-1.7-3.9-3.9-3.9s-3.9,1.7-3.9,3.9c0,2.1,1.7,3.9,3.9,3.9  S18.9,20.1,18.9,18z"/></svg>