<?xml version="1.0" ?><!-- Uploaded to: SVG Repo, www.svgrepo.com, Generator: SVG Repo Mixer Tools -->
<svg width="800px" height="800px" viewBox="0 0 30 30" id="Layer_1" version="1.1" xml:space="preserve" xmlns="http://www.w3.org/2000/svg" xmlns:xlink="http://www.w3.org/1999/xlink"><style type="text/css">
	.st0{fill:#FD6A7E;}
	.st1{fill:#17B978;}
	.st2{fill:#8797EE;}
	.st3{fill:#41A6F9;}
	.st4{fill:#37E0FF;}
	.st5{fill:#2FD9B9;}
	.st6{fill:#F498BD;}
	.st7{fill:#FFDF1D;}
	.st8{fill:#C6C9CC;}
</style><path class="st0" d="M21.5,27.6c-1.9-1.2-3.5-2.7-5-4.4c-1.1-1.3-1-3.3,0.2-4.5c1.3-1.3,3.4-1.3,4.8,0l0,0l0,0  c1.3-1.3,3.4-1.3,4.8,0l0,0c1.2,1.2,1.3,3.2,0.2,4.5C25.1,25,23.4,26.4,21.5,27.6z M24,7H6C4.9,7,4,7.9,4,9v15c0,1.1,0.9,2,2,2h9v-2  H6V13h18v3h2V9C26,7.9,25.1,7,24,7z M23,4c0-0.8-0.7-1.5-1.5-1.5h0C20.7,2.5,20,3.2,20,4v1h3V4z M10,4c0-0.8-0.7-1.5-1.5-1.5h0  C7.7,2.5,7,3.2,7,4v1h3V4z"/></svg>