<?xml version="1.0" ?><!-- Uploaded to: SVG Repo, www.svgrepo.com, Generator: SVG Repo Mixer Tools -->
<svg width="800px" height="800px" viewBox="0 0 30 30" id="Layer_1" version="1.1" xml:space="preserve" xmlns="http://www.w3.org/2000/svg" xmlns:xlink="http://www.w3.org/1999/xlink"><style type="text/css">
	.st0{fill:#FD6A7E;}
	.st1{fill:#17B978;}
	.st2{fill:#8797EE;}
	.st3{fill:#41A6F9;}
	.st4{fill:#37E0FF;}
	.st5{fill:#2FD9B9;}
	.st6{fill:#F498BD;}
	.st7{fill:#FFDF1D;}
	.st8{fill:#C6C9CC;}
</style><path class="st3" d="M8.5,27h-2C5.7,27,5,26.3,5,25.5V24h5v1.5C10,26.3,9.3,27,8.5,27z M25,25.5V24h-5v1.5c0,0.8,0.7,1.5,1.5,1.5h2  C24.3,27,25,26.3,25,25.5z M27,14.6V22H3v-7.4c0-1,0.7-1.8,1.6-2l0.9-0.2L6.1,8C6.4,6.3,8,5,10,5H20c1.9,0,3.6,1.3,3.8,3l0.7,4.5  l0.9,0.2C26.3,12.9,27,13.7,27,14.6z M10,17c0-1.1-0.9-2-2-2s-2,0.9-2,2c0,1.1,0.9,2,2,2S10,18.1,10,17z M19.9,12h1.5l-0.5-3.5  C20.9,8.3,20.5,8,20,8H10C9.5,8,9.1,8.3,9.1,8.5L8.6,12h6.5c0.2-1.1,1.2-2,2.4-2S19.7,10.9,19.9,12z M24,17c0-1.1-0.9-2-2-2  s-2,0.9-2,2c0,1.1,0.9,2,2,2S24,18.1,24,17z"/></svg>