<?xml version="1.0" ?><!-- Uploaded to: SVG Repo, www.svgrepo.com, Generator: SVG Repo Mixer Tools -->
<svg width="800px" height="800px" viewBox="0 0 30 30" id="Layer_1" version="1.1" xml:space="preserve" xmlns="http://www.w3.org/2000/svg" xmlns:xlink="http://www.w3.org/1999/xlink"><style type="text/css">
	.st0{fill:#FD6A7E;}
	.st1{fill:#17B978;}
	.st2{fill:#8797EE;}
	.st3{fill:#41A6F9;}
	.st4{fill:#37E0FF;}
	.st5{fill:#2FD9B9;}
	.st6{fill:#F498BD;}
	.st7{fill:#FFDF1D;}
	.st8{fill:#C6C9CC;}
</style><path class="st3" d="M22.9,9.8c-0.6-0.5-1.3-0.8-2-0.8H19c0,2.2-1.8,4-4,4c-1.5,0-2.7-0.8-3.4-2H15h1h1V9h-1V6h-1c-0.6,0-1-0.4-1-1  s0.4-1,1-1s1,0.4,1,1h2c0-1.7-1.3-3-3-3s-3,1.3-3,3c0,1.3,0.8,2.4,2,2.8V9h-3h-1H9.2c-0.7,0-1.5,0.3-2,0.8L2,14.5l3,4.2L8,17v10h14  V16.9l3,1.8l3-4.2L22.9,9.8z"/></svg>