<?xml version="1.0" ?><!-- Uploaded to: SVG Repo, www.svgrepo.com, Generator: SVG Repo Mixer Tools -->
<svg width="800px" height="800px" viewBox="0 0 30 30" id="Layer_1" version="1.1" xml:space="preserve" xmlns="http://www.w3.org/2000/svg" xmlns:xlink="http://www.w3.org/1999/xlink"><style type="text/css">
	.st0{fill:#FD6A7E;}
	.st1{fill:#17B978;}
	.st2{fill:#8797EE;}
	.st3{fill:#41A6F9;}
	.st4{fill:#37E0FF;}
	.st5{fill:#2FD9B9;}
	.st6{fill:#F498BD;}
	.st7{fill:#FFDF1D;}
	.st8{fill:#C6C9CC;}
</style><path class="st2" d="M10,24.5c0,0.8-0.7,1.5-1.5,1.5h0C7.7,26,7,25.3,7,24.5 M20,24.5c0,0.8,0.7,1.5,1.5,1.5h0  c0.8,0,1.5-0.7,1.5-1.5 M26,8v13c0,1.1-0.9,2-2,2H6c-1.1,0-2-0.9-2-2V8c0-1.1,0.9-2,2-2h18C25.1,6,26,6.9,26,8z M19,14.5  c0-3-2.5-5.5-5.5-5.5S8,11.5,8,14.5c0,3,2.5,5.5,5.5,5.5S19,17.5,19,14.5z M23,13c0-0.6-0.4-1-1-1s-1,0.4-1,1v3c0,0.6,0.4,1,1,1  s1-0.4,1-1V13z M16.1,13.1l0.3-1.2c0.1-0.2-0.1-0.4-0.4-0.4l-1.2,0.3c-0.4-0.2-0.9-0.4-1.4-0.4c-1.7,0-3,1.3-3,3s1.3,3,3,3  s3-1.3,3-3C16.5,14,16.4,13.5,16.1,13.1z"/></svg>