<?xml version="1.0" ?><!-- Uploaded to: SVG Repo, www.svgrepo.com, Generator: SVG Repo Mixer Tools -->
<svg width="800px" height="800px" viewBox="0 0 30 30" id="Layer_1" version="1.1" xml:space="preserve" xmlns="http://www.w3.org/2000/svg" xmlns:xlink="http://www.w3.org/1999/xlink"><style type="text/css">
	.st0{fill:#FD6A7E;}
	.st1{fill:#17B978;}
	.st2{fill:#8797EE;}
	.st3{fill:#41A6F9;}
	.st4{fill:#37E0FF;}
	.st5{fill:#2FD9B9;}
	.st6{fill:#F498BD;}
	.st7{fill:#FFDF1D;}
	.st8{fill:#C6C9CC;}
</style><path class="st5" d="M28.8,12.9L27,20.2c-0.5,2.3-2.2,4.1-4.4,4.9l-4.3,1.6c-0.4,0.1-0.8,0-1.1-0.3l-3.1-3.4  c-1.6-1.7-2.2-4.1-1.7-6.4l1.7-7.3c0.1-0.4,0.5-0.8,1-0.8c4.6,0,9,1.1,13.1,3.1C28.7,12,28.9,12.5,28.8,12.9z M16.3,17.8  c-0.5,1.9,0.7,3.8,2.6,4.2c1.9,0.5,3.8-0.7,4.2-2.6 M24.3,14.6c-0.8-0.2-1.6,0.3-1.8,1.1c-0.2,0.8,0.3,1.6,1.1,1.8  c0.8,0.2,1.6-0.3,1.8-1.1C25.6,15.6,25.1,14.8,24.3,14.6z M17.5,13c-0.8-0.2-1.6,0.3-1.8,1.1c-0.2,0.8,0.3,1.6,1.1,1.8  c0.8,0.2,1.6-0.3,1.8-1.1C18.8,14,18.3,13.2,17.5,13z M11,21.9l-2.1-0.5c-2.3-0.6-4.1-2.3-4.9-4.5l-2.8-8c-0.2-0.4,0-0.9,0.4-1.2  c3.9-2.5,8.1-4,12.7-4.4c0.5,0,0.9,0.2,1,0.7l1,2.8c-0.4,0-0.8,0-1.2,0c-1.4,0-2.6,0.9-2.9,2.3l-1.1,4.7c-0.1,0-0.2,0-0.3,0.1  c-1.8,0.6-2.8,2.6-2.1,4.5l1.6-0.6C10.2,19.1,10.4,20.5,11,21.9z M8.2,12c-0.3-0.8-1.1-1.2-1.9-0.9C5.5,11.3,5,12.2,5.3,13  c0.3,0.8,1.1,1.2,1.9,0.9S8.4,12.8,8.2,12z"/></svg>