<?xml version="1.0" ?><!-- Uploaded to: SVG Repo, www.svgrepo.com, Generator: SVG Repo Mixer Tools -->
<svg width="800px" height="800px" viewBox="0 0 30 30" id="Layer_1" version="1.1" xml:space="preserve" xmlns="http://www.w3.org/2000/svg" xmlns:xlink="http://www.w3.org/1999/xlink"><style type="text/css">
	.st0{fill:#FD6A7E;}
	.st1{fill:#17B978;}
	.st2{fill:#8797EE;}
	.st3{fill:#41A6F9;}
	.st4{fill:#37E0FF;}
	.st5{fill:#2FD9B9;}
	.st6{fill:#F498BD;}
	.st7{fill:#FFDF1D;}
	.st8{fill:#C6C9CC;}
</style><path class="st3" d="M12,23.5c0,1.9-1.6,3.5-3.5,3.5S5,25.4,5,23.5S6.6,20,8.5,20S12,21.6,12,23.5z M22,8c0-0.6-0.4-1-1-1h-1h-2h-1  c-0.6,0-1,0.4-1,1h-4c-3.9,0-7,3.1-7,7v1c-0.6,0-1,0.4-1,1s0.4,1,1,1h6c0.6,0,1-0.4,1-1s-0.4-1-1-1v-1c0-0.6,0.4-1,1-1h4  c0,0.6,0.4,1,1,1h4c0.6,0,1-0.4,1-1h4V8H22z M15,5h1h2h2h1h2c0.6,0,1-0.4,1-1s-0.4-1-1-1h-3c0-0.6-0.4-1-1-1s-1,0.4-1,1h-3  c-0.6,0-1,0.4-1,1S14.4,5,15,5z"/></svg>