<?xml version="1.0" ?><!-- Uploaded to: SVG Repo, www.svgrepo.com, Generator: SVG Repo Mixer Tools -->
<svg width="800px" height="800px" viewBox="0 0 30 30" id="Layer_1" version="1.1" xml:space="preserve" xmlns="http://www.w3.org/2000/svg" xmlns:xlink="http://www.w3.org/1999/xlink"><style type="text/css">
	.st0{fill:#FD6A7E;}
	.st1{fill:#17B978;}
	.st2{fill:#8797EE;}
	.st3{fill:#41A6F9;}
	.st4{fill:#37E0FF;}
	.st5{fill:#2FD9B9;}
	.st6{fill:#F498BD;}
	.st7{fill:#FFDF1D;}
	.st8{fill:#C6C9CC;}
</style><path class="st7" d="M25,6H5C3.9,6,3,6.9,3,8v14c0,1.1,0.9,2,2,2h20c1.1,0,2-0.9,2-2V8C27,6.9,26.1,6,25,6z M23.8,10l-8.1,6.4  c-0.4,0.3-1,0.3-1.5,0l-8-6.3C5.9,9.9,5.8,9.4,6.1,9c0.3-0.3,0.7-0.4,1.1-0.2L15,14l7.9-5.2c0.4-0.2,0.9-0.1,1.1,0.2  C24.2,9.3,24.1,9.8,23.8,10z"/></svg>