<?xml version="1.0" ?><!-- Uploaded to: SVG Repo, www.svgrepo.com, Generator: SVG Repo Mixer Tools -->
<svg width="800px" height="800px" viewBox="0 0 30 30" id="Layer_1" version="1.1" xml:space="preserve" xmlns="http://www.w3.org/2000/svg" xmlns:xlink="http://www.w3.org/1999/xlink"><style type="text/css">
	.st0{fill:#FD6A7E;}
	.st1{fill:#17B978;}
	.st2{fill:#8797EE;}
	.st3{fill:#41A6F9;}
	.st4{fill:#37E0FF;}
	.st5{fill:#2FD9B9;}
	.st6{fill:#F498BD;}
	.st7{fill:#FFDF1D;}
	.st8{fill:#C6C9CC;}
</style><path class="st6" d="M16.3,11.2c0-1.1-0.5-2.2-1.3-3L8.8,2.5C8.5,2.2,8,2.2,7.7,2.5c-0.3,0.3-0.3,0.8,0,1.1L12.4,9c0,0,0,0,0,0  c0.2,0.2,0.2,0.6,0,0.9c-0.2,0.2-0.6,0.2-0.9,0l0,0L6.1,5.1C5.8,4.8,5.3,4.8,5,5.1l0,0C4.7,5.4,4.7,5.9,5,6.2l4.8,5.5  c0.2,0.2,0.2,0.6,0,0.9c-0.2,0.2-0.6,0.2-0.9,0L3.5,7.8c-0.3-0.3-0.8-0.3-1.1,0c-0.3,0.3-0.3,0.8,0,1.1L8,15.1  c0.8,0.9,2,1.4,3.2,1.3l1.6-0.1c0.6,0,1.2,0.2,1.6,0.7l8.8,9.9c1,1.2,2.8,1.2,3.9,0.1l0,0c1.1-1.1,1-2.9-0.1-3.9L17,14.2  c-0.4-0.4-0.7-0.9-0.7-1.5V11.2z"/></svg>