<?xml version="1.0" ?><!-- Uploaded to: SVG Repo, www.svgrepo.com, Generator: SVG Repo Mixer Tools -->
<svg width="800px" height="800px" viewBox="0 0 30 30" id="Layer_1" version="1.1" xml:space="preserve" xmlns="http://www.w3.org/2000/svg" xmlns:xlink="http://www.w3.org/1999/xlink"><style type="text/css">
	.st0{fill:#FD6A7E;}
	.st1{fill:#17B978;}
	.st2{fill:#8797EE;}
	.st3{fill:#41A6F9;}
	.st4{fill:#37E0FF;}
	.st5{fill:#2FD9B9;}
	.st6{fill:#F498BD;}
	.st7{fill:#FFDF1D;}
	.st8{fill:#C6C9CC;}
</style><path class="st2" d="M26.6,12.9l-2.9-0.3c-0.2-0.7-0.5-1.4-0.8-2l1.8-2.3c0.2-0.2,0.1-0.5,0-0.7l-2.2-2.2c-0.2-0.2-0.5-0.2-0.7,0  l-2.3,1.8c-0.6-0.4-1.3-0.6-2-0.8l-0.3-2.9C17,3.2,16.8,3,16.6,3h-3.1c-0.3,0-0.5,0.2-0.5,0.4l-0.3,2.9c-0.7,0.2-1.4,0.5-2,0.8  L8.3,5.4c-0.2-0.2-0.5-0.1-0.7,0L5.4,7.6c-0.2,0.2-0.2,0.5,0,0.7l1.8,2.3c-0.4,0.6-0.6,1.3-0.8,2l-2.9,0.3C3.2,13,3,13.2,3,13.4v3.1  c0,0.3,0.2,0.5,0.4,0.5l2.9,0.3c0.2,0.7,0.5,1.4,0.8,2l-1.8,2.3c-0.2,0.2-0.1,0.5,0,0.7l2.2,2.2c0.2,0.2,0.5,0.2,0.7,0l2.3-1.8  c0.6,0.4,1.3,0.6,2,0.8l0.3,2.9c0,0.3,0.2,0.4,0.5,0.4h3.1c0.3,0,0.5-0.2,0.5-0.4l0.3-2.9c0.7-0.2,1.4-0.5,2-0.8l2.3,1.8  c0.2,0.2,0.5,0.1,0.7,0l2.2-2.2c0.2-0.2,0.2-0.5,0-0.7l-1.8-2.3c0.4-0.6,0.6-1.3,0.8-2l2.9-0.3c0.3,0,0.4-0.2,0.4-0.5v-3.1  C27,13.2,26.8,13,26.6,12.9z M15,19c-2.2,0-4-1.8-4-4c0-2.2,1.8-4,4-4s4,1.8,4,4C19,17.2,17.2,19,15,19z"/></svg>