<?xml version="1.0" ?><!-- Uploaded to: SVG Repo, www.svgrepo.com, Generator: SVG Repo Mixer Tools -->
<svg width="800px" height="800px" viewBox="0 0 30 30" id="Layer_1" version="1.1" xml:space="preserve" xmlns="http://www.w3.org/2000/svg" xmlns:xlink="http://www.w3.org/1999/xlink"><style type="text/css">
	.st0{fill:#FD6A7E;}
	.st1{fill:#17B978;}
	.st2{fill:#8797EE;}
	.st3{fill:#41A6F9;}
	.st4{fill:#37E0FF;}
	.st5{fill:#2FD9B9;}
	.st6{fill:#F498BD;}
	.st7{fill:#FFDF1D;}
	.st8{fill:#C6C9CC;}
</style><path class="st0" d="M24,16v10c0,0.6-0.4,1-1,1H7c-0.6,0-1-0.4-1-1V16h8v9h2v-9H24z M14,9H5c-0.6,0-1,0.4-1,1v3c0,0.6,0.4,1,1,1h9V9  z M25,9h-9v5h9c0.6,0,1-0.4,1-1v-3C26,9.4,25.6,9,25,9z M22.1,7.9l0.1-0.4c0.4-1,0.3-2.2-0.3-3.1C21.3,3.5,20.2,3,19.1,3  c-1.4,0-2.6,0.8-3.1,2.1l-2,4.9H19C20.3,10,21.6,9.2,22.1,7.9z M17.9,5.8C18.1,5.3,18.6,5,19.1,5c0.4,0,0.8,0.2,1.1,0.6  c0.2,0.4,0.3,0.8,0.1,1.2l-0.1,0.4C20,7.7,19.5,8,19,8h-2L17.9,5.8z M14,5.1C13.5,3.8,12.2,3,10.9,3C9.8,3,8.7,3.5,8.1,4.5  C7.5,5.4,7.4,6.5,7.8,7.6l0.1,0.4C8.4,9.2,9.7,10,11,10h4.9L14,5.1z M12.1,5.8L13,8h-2c-0.5,0-1-0.3-1.2-0.8L9.6,6.8  C9.5,6.4,9.5,5.9,9.8,5.6C10,5.2,10.4,5,10.9,5C11.4,5,11.9,5.3,12.1,5.8z"/></svg>