<?xml version="1.0" ?><!-- Uploaded to: SVG Repo, www.svgrepo.com, Generator: SVG Repo Mixer Tools -->
<svg width="800px" height="800px" viewBox="0 0 30 30" id="Layer_1" version="1.1" xml:space="preserve" xmlns="http://www.w3.org/2000/svg" xmlns:xlink="http://www.w3.org/1999/xlink"><style type="text/css">
	.st0{fill:#FD6A7E;}
	.st1{fill:#17B978;}
	.st2{fill:#8797EE;}
	.st3{fill:#41A6F9;}
	.st4{fill:#37E0FF;}
	.st5{fill:#2FD9B9;}
	.st6{fill:#F498BD;}
	.st7{fill:#FFDF1D;}
	.st8{fill:#C6C9CC;}
</style><path class="st7" d="M24.5,20l-0.1-0.1l1.3-1.3l-1.4-1.4l-1.3,1.3l-1-1c0-0.2,0-0.5,0-0.7L18.5,3.3c-0.2-1-1.1-1.6-2.1-1.5L6.9,2.3  C5.9,2.4,5.1,3.2,5,4.2l-0.6,9.6c-0.1,1,0.6,1.9,1.5,2.1l13.6,3.4c0.1,0,0.2,0,0.4,0c0.2,0,0.5-0.1,0.7-0.1l0.8,0.8l-1.3,1.3  l1.4,1.4l1.3-1.3l0.1,0.1c0.9,0.9,0.9,2.2,0,3.1c-0.9,0.9-2.2,0.9-3.1,0c-2.2-2.2-5.7-2.2-7.9,0l-1.8,1.8c-0.4,0.4-0.4,1,0,1.4  c0.2,0.2,0.5,0.3,0.7,0.3s0.5-0.1,0.7-0.3l1.8-1.8c1.4-1.4,3.7-1.4,5.1,0c1.6,1.6,4.3,1.6,5.9,0S26.1,21.7,24.5,20z M20,17.3  L20,17.3l-8.6-8.6l-4.9,4.9L7,4.3l4.3,4.3l5.2-5.2L20,17.3z"/></svg>