<?xml version="1.0" ?><!-- Uploaded to: SVG Repo, www.svgrepo.com, Generator: SVG Repo Mixer Tools -->
<svg width="800px" height="800px" viewBox="0 0 30 30" id="Layer_1" version="1.1" xml:space="preserve" xmlns="http://www.w3.org/2000/svg" xmlns:xlink="http://www.w3.org/1999/xlink"><style type="text/css">
	.st0{fill:#FD6A7E;}
	.st1{fill:#17B978;}
	.st2{fill:#8797EE;}
	.st3{fill:#41A6F9;}
	.st4{fill:#37E0FF;}
	.st5{fill:#2FD9B9;}
	.st6{fill:#F498BD;}
	.st7{fill:#FFDF1D;}
	.st8{fill:#C6C9CC;}
</style><path class="st7" d="M27.3,13.9L23,10.2V6c0-0.6-0.4-1-1-1h-2c-0.6,0-1,0.4-1,1v0.9l-3.3-2.8c-0.4-0.3-1-0.3-1.4,0L2.7,13.9  C2.2,14.3,2.5,15,3.1,15H5v11c0,0.6,0.4,1,1,1h6v-6c0-1.7,1.3-3,3-3s3,1.3,3,3v6h6c0.6,0,1-0.4,1-1V15h1.9  C27.5,15,27.8,14.3,27.3,13.9z"/></svg>