<?xml version="1.0" ?><!-- Uploaded to: SVG Repo, www.svgrepo.com, Generator: SVG Repo Mixer Tools -->
<svg width="800px" height="800px" viewBox="0 0 30 30" id="Layer_1" version="1.1" xml:space="preserve" xmlns="http://www.w3.org/2000/svg" xmlns:xlink="http://www.w3.org/1999/xlink"><style type="text/css">
	.st0{fill:#FD6A7E;}
	.st1{fill:#17B978;}
	.st2{fill:#8797EE;}
	.st3{fill:#41A6F9;}
	.st4{fill:#37E0FF;}
	.st5{fill:#2FD9B9;}
	.st6{fill:#F498BD;}
	.st7{fill:#FFDF1D;}
	.st8{fill:#C6C9CC;}
</style><path class="st6" d="M24.1,4h-9c-0.5,0-1,0.2-1.3,0.5L3.6,14.8c-0.7,0.7-0.7,1.9,0,2.6l9,9c0.7,0.7,1.9,0.7,2.6,0l10.3-10.3  c0.3-0.3,0.5-0.8,0.5-1.3v-9C26,4.8,25.2,4,24.1,4z M20,12c-1.1,0-2-0.9-2-2c0-1.1,0.9-2,2-2s2,0.9,2,2C22,11.1,21.1,12,20,12z"/></svg>