<?xml version="1.0" ?><!-- Uploaded to: SVG Repo, www.svgrepo.com, Generator: SVG Repo Mixer Tools -->
<svg width="800px" height="800px" viewBox="0 0 30 30" id="Layer_1" version="1.1" xml:space="preserve" xmlns="http://www.w3.org/2000/svg" xmlns:xlink="http://www.w3.org/1999/xlink"><style type="text/css">
	.st0{fill:#FD6A7E;}
	.st1{fill:#17B978;}
	.st2{fill:#8797EE;}
	.st3{fill:#41A6F9;}
	.st4{fill:#37E0FF;}
	.st5{fill:#2FD9B9;}
	.st6{fill:#F498BD;}
	.st7{fill:#FFDF1D;}
	.st8{fill:#C6C9CC;}
</style><path class="st8" d="M22.6,5.8c-0.1-1-0.9-1.8-2-1.8H19c0-0.6-0.4-1-1-1h-6c-0.6,0-1,0.4-1,1H9.4c-1,0-1.9,0.8-2,1.8l-0.8,12  C6.5,19,7.5,20,8.6,20h12.8c1.2,0,2.1-1,2-2.2L22.6,5.8z M10,18c-0.6,0-1-0.4-1-1c0-0.6,0.4-1,1-1s1,0.4,1,1C11,17.6,10.6,18,10,18z   M10,12V8c0-0.6,0.4-1,1-1h8c0.6,0,1,0.4,1,1v4c0,0.6-0.4,1-1,1h-8C10.4,13,10,12.6,10,12z M20,18c-0.6,0-1-0.4-1-1c0-0.6,0.4-1,1-1  s1,0.4,1,1C21,17.6,20.6,18,20,18z M5.9,27C5.9,27,5.9,27,5.9,27l2.8-5h2.3l-0.6,1h9.3l-0.6-1h2.3l2.8,5h-2.3l-1.1-2H9.3l-1.1,2H5.9  z"/></svg>