<?xml version="1.0" ?><!-- Uploaded to: SVG Repo, www.svgrepo.com, Generator: SVG Repo Mixer Tools -->
<svg width="800px" height="800px" viewBox="0 0 30 30" id="Layer_1" version="1.1" xml:space="preserve" xmlns="http://www.w3.org/2000/svg" xmlns:xlink="http://www.w3.org/1999/xlink"><style type="text/css">
	.st0{fill:#FD6A7E;}
	.st1{fill:#17B978;}
	.st2{fill:#8797EE;}
	.st3{fill:#41A6F9;}
	.st4{fill:#37E0FF;}
	.st5{fill:#2FD9B9;}
	.st6{fill:#F498BD;}
	.st7{fill:#FFDF1D;}
	.st8{fill:#C6C9CC;}
</style><path class="st5" d="M20,6h-2V4h-6v2h-2V4c0-1.1,0.9-2,2-2h6c1.1,0,2,0.9,2,2V6z M27,10v13c0,1.1-0.9,2-2,2h-1c0,0.6-0.4,1-1,1h-2  c-0.6,0-1-0.4-1-1H10c0,0.6-0.4,1-1,1H7c-0.6,0-1-0.4-1-1H5c-1.1,0-2-0.9-2-2V10c0-1.1,0.9-2,2-2h20C26.1,8,27,8.9,27,10z M7,14  c0,1.1,0.9,2,2,2s2-0.9,2-2c0-1.1-0.9-2-2-2S7,12.9,7,14z M14.4,20l-1.1-2.8L8.6,19l1.1,2.8L14.4,20z M20.7,17.5l2.8-2.8l-4.2-4.2  l-2.8,2.8L20.7,17.5z"/></svg>